{
  "accessors": [
    {
      "bufferView": 0,
      "byteOffset": 0,
      "componentType": 5125,
      "normalized": false,
      "count": 38400,
      "type": "SCALAR",
      "max": [
        38399
      ],
      "min": [
        0
      ]
    },
    {
      "bufferView": 1,
      "byteOffset": 0,
      "componentType": 5126,
      "normalized": false,
      "count": 38400,
      "type": "VEC3",
      "max": [
        4.0,
        4.0,
        0.9348893761634827
      ],
      "min": [
        0.0,
        0.0,
        -1.1645503044128418
      ]
    },
    {
      "bufferView": 2,
      "byteOffset": 0,
      "componentType": 5125,
      "normalized": false,
      "count": 2400,
      "type": "SCALAR",
      "max": [
        2399
      ],
      "min": [
        0
      ]
    },
    {
      "bufferView": 3,
      "byteOffset": 0,
      "componentType": 5126,
      "normalized": false,
      "count": 2400,
      "type": "VEC3",
      "max": [
        1.0,
        1.0,
        1.0
      ],
      "min": [
        -1.0,
        -1.0,
        -1.0
      ]
    },
    {
      "bufferView": 4,
      "byteOffset": 0,
      "componentType": 5126,
      "normalized": false,
      "count": 450,
      "type": "SCALAR",
      "max": [
        45.0
      ],
      "min": [
        0
      ]
    },
    {
      "bufferView": 5,
      "byteOffset": 0,
      "componentType": 5126,
      "normalized": false,
      "count": 450,
      "type": "VEC3",
      "max": [
        2.97283673286438,
        2.950918436050415,
        0.2590089440345764
      ],
      "min": [
        1.02165949344635,
        1.0690253973007202,
        -1.0211483240127563
      ]
    }
  ],
  "animations": [
    {
      "channels": [
        {
          "sampler": 0,
          "target": {
            "node": 1,
            "path": "translation"
          }
        }
      ],
      "samplers": [
        {
          "input": 4,
          "interpolation": "LINEAR",
          "output": 5
        }
      ]
    }
  ],
  "asset": {
    "generator": "pygltflib@v1.16.4",
    "version": "2.0"
  },
  "bufferViews": [
    {
      "buffer": 0,
      "byteOffset": 0,
      "byteLength": 153600,
      "target": 34963
    },
    {
      "buffer": 0,
      "byteOffset": 153600,
      "byteLength": 460800,
      "target": 34962
    },
    {
      "buffer": 0,
      "byteOffset": 614400,
      "byteLength": 9600,
      "target": 34963
    },
    {
      "buffer": 0,
      "byteOffset": 624000,
      "byteLength": 28800,
      "target": 34962
    },
    {
      "buffer": 0,
      "byteOffset": 652800,
      "byteLength": 1800
    },
    {
      "buffer": 0,
      "byteOffset": 654600,
      "byteLength": 5400
    }
  ],
  "buffers": [
    {
      "uri": "static_triangles.bin",
      "byteLength": 660000
    }
  ],
  "materials": [
    {
      "pbrMetallicRoughness": {
        "baseColorFactor": [
          1.0,
          0.0,
          0.0,
          1.0
        ],
        "metallicFactor": 0.0,
        "roughnessFactor": 1.0
      },
      "emissiveFactor": [
        0.0,
        0.0,
        0.0
      ],
      "alphaMode": "MASK",
      "alphaCutoff": 0.5,
      "doubleSided": false
    },
    {
      "pbrMetallicRoughness": {
        "baseColorFactor": [
          0.0,
          0.0,
          0.0,
          1.0
        ],
        "metallicFactor": 0.0,
        "roughnessFactor": 1.0
      },
      "emissiveFactor": [
        0.0,
        0.0,
        0.0
      ],
      "alphaMode": "MASK",
      "alphaCutoff": 0.5,
      "doubleSided": true
    }
  ],
  "meshes": [
    {
      "primitives": [
        {
          "attributes": {
            "POSITION": 1
          },
          "indices": 0,
          "mode": 4,
          "material": 0
        }
      ]
    },
    {
      "primitives": [
        {
          "attributes": {
            "POSITION": 3
          },
          "indices": 2,
          "mode": 4,
          "material": 1
        }
      ]
    }
  ],
  "nodes": [
    {
      "mesh": 0
    },
    {
      "mesh": 1,
      "translation": [
        2.000950974104559,
        2.000940981311271,
        0.20543017854924076
      ],
      "scale": [
        0.025,
        0.025,
        0.025
      ]
    }
  ],
  "scene": 0,
  "scenes": [
    {
      "nodes": [
        0,
        1
      ]
    }
  ]
}