{
  "accessors": [
    {
      "bufferView": 0,
      "byteOffset": 0,
      "componentType": 5125,
      "normalized": false,
      "count": 38400,
      "type": "SCALAR",
      "max": [
        38399
      ],
      "min": [
        0
      ]
    },
    {
      "bufferView": 1,
      "byteOffset": 0,
      "componentType": 5126,
      "normalized": false,
      "count": 38400,
      "type": "VEC3",
      "max": [
        4.0,
        4.0,
        1.9708054065704346
      ],
      "min": [
        0.0,
        0.0,
        -1.0295554399490356
      ]
    },
    {
      "bufferView": 2,
      "byteOffset": 0,
      "componentType": 5126,
      "normalized": false,
      "count": 450,
      "type": "VEC3",
      "max": [
        2.756490468978882,
        3.950371503829956,
        0.7544798851013184
      ],
      "min": [
        2.000720500946045,
        1.023237943649292,
        -0.26304057240486145
      ]
    }
  ],
  "asset": {
    "generator": "pygltflib@v1.16.4",
    "version": "2.0"
  },
  "bufferViews": [
    {
      "buffer": 0,
      "byteOffset": 0,
      "byteLength": 153600,
      "target": 34963
    },
    {
      "buffer": 0,
      "byteOffset": 153600,
      "byteLength": 460800,
      "target": 34962
    },
    {
      "buffer": 0,
      "byteOffset": 614400,
      "byteLength": 5400,
      "target": 34962
    }
  ],
  "buffers": [
    {
      "uri": "static_triangles.bin",
      "byteLength": 619800
    }
  ],
  "materials": [
    {
      "pbrMetallicRoughness": {
        "baseColorFactor": [
          1.0,
          0.0,
          0.0,
          1.0
        ],
        "metallicFactor": 0.0,
        "roughnessFactor": 1.0
      },
      "emissiveFactor": [
        0.0,
        0.0,
        0.0
      ],
      "alphaMode": "OPAQUE",
      "alphaCutoff": 0.5,
      "doubleSided": false
    }
  ],
  "meshes": [
    {
      "primitives": [
        {
          "attributes": {
            "POSITION": 1
          },
          "indices": 0,
          "mode": 4
        },
        {
          "attributes": {
            "POSITION": 2
          },
          "mode": 0,
          "material": 0
        }
      ]
    }
  ],
  "nodes": [
    {
      "mesh": 0
    }
  ],
  "scene": 0,
  "scenes": [
    {
      "nodes": [
        0
      ]
    }
  ]
}